<svg version="1" xmlns="http://www.w3.org/2000/svg" width="933.333" height="933.333" viewBox="0 0 700.000000 700.000000"><path d="M270.9 78.5c-5.9 1.9-12.8 8-15.9 14.1l-2.5 4.9v505l3 5.4c3.6 6.5 8.3 10.5 15.3 13.1 4.5 1.7 7.1 1.9 18 1.6 11.3-.4 36.6-3.1 38.2-4.1.4-.2 4-1.1 8.1-1.9 39.5-8.3 80.8-31.6 107.4-60.8 14.8-16.2 29.3-41.2 33.8-58.3.2-.6.8-2.6 1.4-4.5.7-1.9 1.4-5.2 1.7-7.2.3-2.1 1.1-5.9 1.7-8.5.6-2.7 1.2-12 1.4-20.8.2-17.6-1.8-30.9-7.1-46.9-4.4-13.2-18.1-39.2-22.8-43.1-.6-.6-2.7-3.1-4.5-5.6-4.4-6.2-21.9-23.1-31.1-30-4.1-3.1-12.2-8.4-18-11.9-5.8-3.4-10.6-6.4-10.8-6.5-.2-.1 2.8-2.4 6.5-5.1 3.7-2.6 11.3-9.3 16.8-14.8 15.6-15.6 26.7-33.7 32-52.1 3.2-11.2 3.7-15.2 4-29.4.3-23.5-5.8-43.5-19.9-64.6-6.7-10-21.7-25.6-31.6-32.8-3.6-2.6-6.9-5.1-7.5-5.5-3.1-2.4-14.2-8.6-22.5-12.4-11.3-5.3-21.6-9-34-12.3-.4-.1-10.9-2.4-13.5-3-.5-.1-3-.5-5.5-.8-17.4-2.6-36-3.1-42.1-1.2zm46.5 59.1c13.3 3.4 26.6 9 37.6 15.8 8.2 5.1 10.9 7.4 19.1 15.9 38 39.6 11.8 94.1-54.1 112.3-4.7 1.3-9.3 2.4-10.2 2.4-1.7 0-1.8-4.1-1.8-74 0-67.3.1-74 1.6-74 .9 0 4.4.7 7.8 1.6zm-.9 209.1c5.8.8 21.9 5.5 29.2 8.4 24.3 9.6 47.4 25.9 59.5 41.7 2.3 3.1 4.6 5.9 4.9 6.2.4.3 2.9 4.8 5.7 10 4.5 8.6 8.1 18.4 9.7 26.5 1.1 5.1 1.3 24.2.5 28.2-.5 2.1-1.1 5.1-1.4 6.6-2.7 15.1-13.6 33.8-28.2 48.2-7.6 7.6-21 18.5-22.7 18.5-.3 0-3.4 1.7-6.8 3.8-11.9 7.2-37.8 16.7-50.4 18.6-1.6.2-4.2.7-5.7 1.1l-2.8.7V344.8l2.8.7c1.5.4 4.1.9 5.7 1.2z"/></svg>