<?xml version="1.0" encoding="utf-8"?>
<!-- Generator: Adobe Illustrator 16.0.3, SVG Export Plug-In . SVG Version: 6.00 Build 0)  -->
<!DOCTYPE svg PUBLIC "-//W3C//DTD SVG 1.1//EN" "http://www.w3.org/Graphics/SVG/1.1/DTD/svg11.dtd">
<svg version="1.1" id="flask" xmlns="http://www.w3.org/2000/svg" xmlns:xlink="http://www.w3.org/1999/xlink" x="0px" y="0px"
	 width="345px" height="432px" viewBox="176.5 210.5 345 432" enable-background="new 176.5 210.5 345 432" xml:space="preserve">
<g id="bubbles-in" display="none">
	<circle display="inline" fill="#5A6B89" fill-opacity="0.25" cx="336" cy="428" r="25"/>
	<circle display="inline" fill="#5A6B89" fill-opacity="0.25" cx="309" cy="485" r="8.5"/>
	<circle display="inline" fill="#5A6B89" fill-opacity="0.25" cx="348" cy="525" r="13"/>
	<circle display="inline" fill="#5A6B89" fill-opacity="0.25" cx="318" cy="554" r="8.5"/>
	<circle display="inline" fill="#5A6B89" fill-opacity="0.25" cx="430" cy="576" r="10.5"/>
	<circle display="inline" fill="#5A6B89" fill-opacity="0.25" cx="367" cy="383" r="10.5"/>
	<circle display="inline" fill="#5A6B89" fill-opacity="0.25" cx="258" cy="572" r="5.5"/>
</g>
<g id="bubbles-above" display="none">
	<circle display="inline" fill="#5A6B89" fill-opacity="0.25" cx="365" cy="82" r="13"/>
	<circle display="inline" fill="#5A6B89" fill-opacity="0.25" cx="327" cy="135" r="26"/>
	<circle display="inline" fill="#5A6B89" fill-opacity="0.25" cx="386" cy="149" r="8.5"/>
	<circle display="inline" fill="#5A6B89" fill-opacity="0.25" cx="365" cy="188" r="16.5"/>
</g>
<g>
	<path id="glass" fill="#CBEBFF" fill-opacity="0.25" d="M397.5,359.348v-79.754c0,0,19.477-2.885,19.785-19.022
		c0.219-11.366-3.921-15.56-8.124-18.56H289.322c-4.252,3-8.536,7.193-8.318,18.56c0.31,16.137,19.496,19.022,19.496,19.022v79.754
		c0,0-63.982,145.678-89.516,203.298c-4.981,11.242,4.374,42.21,31.112,45.896c26.739,3.688,106.977,2.056,106.977,2.056
		s80.323,1.632,107.062-2.056c26.737-3.688,36.146-34.654,31.164-45.896C461.766,505.025,397.5,359.348,397.5,359.348z"/>
	<path id="edge" fill="#5A6B89" d="M504.927,554.713c-9.42-21.259-24.625-55.438-39.33-88.487
		c-21.288-47.847-43.278-97.276-49.268-110.991v-62.136c8.585-4.892,19.919-14.641,20.254-32.084
		c0.462-24.101-12.608-33.405-18.345-36.316l-4.146-2.237H284.925l-4.361,2.156c-5.96,2.965-19.772,12.453-19.309,36.45
		c0.337,17.662,10.98,27.229,19.121,31.974v62.203c-10.776,24.76-64.641,147.965-87.466,199.473
		c-5.248,11.842-3.168,28.781,5.427,44.208c9.073,16.283,23.75,26.588,41.331,29.013c12.503,1.727,36.196,2.601,70.42,2.601
		c20.344,0,37.508-0.322,39.207-0.355c1.693,0.033,18.82,0.355,39.252,0.355c34.176,0,57.847-0.874,70.354-2.601
		c17.524-2.417,32.19-12.747,41.297-29.087C508.416,584.098,510.272,566.772,504.927,554.713z M242.926,602.85
		c-12.832-1.771-19.711-10.943-22.67-16.254c-5.19-9.314-5.42-18.251-3.927-21.622c25.244-56.968,88.971-201.854,89.611-203.313
		l0.484-1.104v-80.961l-0.024-4.914l-4.851-0.767c-0.592-0.094-14.5-2.419-14.712-13.438c-0.122-6.318,1.253-10.578,4.089-12.69
		h116.605c2.772,2.111,4.118,6.371,3.996,12.69c-0.211,11.014-14.313,13.343-14.89,13.433l-4.906,0.724v85.927l0.487,1.108
		c0.645,1.455,64.575,146.341,89.818,203.306c1.485,3.354,1.246,12.262-3.938,21.563c-2.971,5.332-9.877,14.54-22.741,16.312
		c-11.203,1.544-34.378,2.36-67.021,2.36c-21.236,0-38.953-0.354-39.129-0.358l-0.116-0.002l-0.116,0.002
		c-0.177,0.004-17.874,0.358-39.086,0.358C277.288,605.21,254.131,604.394,242.926,602.85z"/>
	<path id="liquid" fill="#5A6B89" fill-opacity="0.25" d="M402.507,404.519c-21.874-4.141-38.816,17.733-58.061,28.59
		c-16.803,9.479-42.812,11.51-65.755,10.98c-19.308,43.841-41.927,95.158-54.725,124.037c-0.532,1.908-0.013,9.056,4.455,16.062
		c3.931,6.164,9.247,9.747,15.801,10.65c10.843,1.495,33.616,2.286,65.855,2.286c21.128,0,38.752-0.354,38.928-0.356l0.281-0.005
		l0.279,0.005c0.178,0.003,17.822,0.356,38.972,0.356c32.271,0,55.062-0.791,65.906-2.286c6.569-0.905,11.907-4.5,15.86-10.687
		c4.477-6.995,5.014-14.125,4.487-16.033C457.812,529.799,423.441,451.951,402.507,404.519z"/>
	<text transform="matrix(1 0 0 1 292.8647 576.1895)" fill="#5A6B89" font-family="'OpenSans-Semibold'" font-size="165.9564">€</text>
</g>
</svg>
