<?xml version="1.0" encoding="utf-8"?>
<!-- Generator: Adobe Illustrator 16.0.3, SVG Export Plug-In . SVG Version: 6.00 Build 0)  -->
<svg version="1.2" baseProfile="tiny" id="Layer_1" xmlns="http://www.w3.org/2000/svg" xmlns:xlink="http://www.w3.org/1999/xlink"
	 x="0px" y="0px" width="200px" height="200px" viewBox="0 0 200 200" xml:space="preserve">
<polygon fill="#FFFFFF" stroke="#545872" stroke-width="4" stroke-linecap="round" stroke-linejoin="round" stroke-miterlimit="10" points="
	50,30 120,30 150,60 150,170 50,170 "/>
<polygon fill="#FFFFFF" stroke="#545872" stroke-width="4" stroke-linecap="round" stroke-linejoin="round" stroke-miterlimit="10" points="
	120,30 120,60 150,60 "/>
<g display="none">
	<rect x="60" y="40" display="inline" fill="#1A1782" width="15" height="30"/>
	<rect x="90" y="40" display="inline" fill="#EA0A0A" width="15" height="30"/>
</g>
<rect x="60" y="40" fill="#8A91AD" width="45.001" height="30"/>
<g>
	<polygon fill="#FFFFFF" points="85.5,58 85.5,59.404 101.396,70 103.648,70 85.648,58 	"/>
	<polygon fill="#FFFFFF" points="105.001,69.099 105.001,67.597 90.605,58 88.352,58 	"/>
	<polygon fill="#FFFFFF" points="60,40.901 60,42.404 74.395,52 76.648,52 	"/>
	<polygon fill="#FFFFFF" points="79.5,52 79.5,50.597 63.605,40 61.352,40 79.352,52 	"/>
	<polygon fill="#FFFFFF" points="74.396,58 60,67.597 60,69.099 76.649,58 	"/>
	<polygon fill="#FFFFFF" points="85.649,52 103.648,40 101.396,40 85.5,50.597 85.5,52 	"/>
	<polygon fill="#FFFFFF" points="79.353,58 61.352,70 63.605,70 79.5,59.404 79.5,58 	"/>
	<polygon fill="#FFFFFF" points="90.606,52 105.001,42.404 105.001,40.901 88.353,52 	"/>
	<polygon fill="#FFFFFF" points="86.477,56.75 88.352,58 90.605,58 105.001,58 105.001,56.75 	"/>
	<polygon fill="#FFFFFF" points="78.523,53.25 76.648,52 74.395,52 60,52 60,53.25 	"/>
	<polygon fill="#FFFFFF" points="79.352,52 79.5,52.099 79.5,52 	"/>
	<polygon fill="#FFFFFF" points="85.648,58 85.5,57.901 85.5,58 	"/>
	<polygon fill="#FFFFFF" points="86.478,53.25 105.001,53.25 105.001,52 90.606,52 88.353,52 	"/>
	<polygon fill="#FFFFFF" points="85.5,52.099 85.649,52 85.5,52 	"/>
	<polygon fill="#FFFFFF" points="78.524,56.75 60,56.75 60,58 74.396,58 76.649,58 	"/>
	<polygon fill="#FFFFFF" points="79.5,58 79.5,57.901 79.353,58 	"/>
	<polygon fill="#FFFFFF" points="84.25,52.932 85.5,52.099 85.5,52 85.5,50.597 85.5,40 84.25,40 	"/>
	<polygon fill="#FFFFFF" points="80.75,57.068 79.5,57.901 79.5,58 79.5,59.404 79.5,70 80.75,70 	"/>
	<polygon fill="#FFFFFF" points="85.5,57.901 84.25,57.068 84.25,70 85.5,70 85.5,59.404 85.5,58 	"/>
	<polygon fill="#FFFFFF" points="79.5,52.099 80.75,52.932 80.75,40 79.5,40 79.5,50.597 79.5,52 	"/>
	<polygon fill="#B6BACE" points="84.25,57.068 83.773,56.75 81.228,56.75 80.75,57.068 80.75,70 84.25,70 	"/>
	<polygon fill="#B6BACE" points="80.75,52.932 81.227,53.25 83.774,53.25 84.25,52.932 84.25,40 80.75,40 	"/>
	<polygon fill="#B6BACE" points="78.524,56.75 81.148,55 78.523,53.25 60,53.25 60,56.75 	"/>
	<polygon fill="#B6BACE" points="86.478,53.25 83.853,55 86.477,56.75 105.001,56.75 105.001,53.25 	"/>
	<polygon fill="#B6BACE" points="81.228,56.75 83.773,56.75 82.5,55.901 	"/>
	<polygon fill="#B6BACE" points="81.227,53.25 82.5,54.099 83.774,53.25 	"/>
	<polygon fill="#B6BACE" points="88.352,58 86.477,56.75 83.853,55 82.5,55.901 83.773,56.75 84.25,57.068 85.5,57.901 85.648,58
		103.648,70 105.001,70 105.001,69.099 	"/>
	<polygon fill="#B6BACE" points="78.523,53.25 81.148,55 82.5,54.099 81.227,53.25 80.75,52.932 79.5,52.099 79.352,52 61.352,40
		60,40 60,40.901 76.648,52 	"/>
	<polygon fill="#B6BACE" points="79.5,57.901 80.75,57.068 81.228,56.75 82.5,55.901 83.853,55 86.478,53.25 88.353,52
		105.001,40.901 105.001,40 103.648,40 85.649,52 85.5,52.099 84.25,52.932 83.774,53.25 82.5,54.099 81.148,55 78.524,56.75
		76.649,58 60,69.099 60,70 61.352,70 79.353,58 	"/>
</g>
<g>
	<path fill="#B6BACE" d="M128.286,150c-4.119-11.65-15.226-20-28.286-20c-13.061,0-24.167,8.35-28.286,20H128.286z"/>
	<circle fill="#B6BACE" cx="100" cy="110" r="15"/>
</g>
</svg>
