<?xml version="1.0" encoding="utf-8"?>
<!-- Generator: Adobe Illustrator 16.0.3, SVG Export Plug-In . SVG Version: 6.00 Build 0)  -->
<svg version="1.2" baseProfile="tiny" id="Layer_1" xmlns="http://www.w3.org/2000/svg" xmlns:xlink="http://www.w3.org/1999/xlink"
	 x="0px" y="0px" width="200px" height="200px" viewBox="0 0 200 200" xml:space="preserve">
<polygon fill="#FFFFFF" stroke="#545872" stroke-width="4" stroke-linecap="round" stroke-linejoin="round" stroke-miterlimit="10" points="
	50,30 120,30 150,60 150,170 50,170 "/>
<polygon fill="#FFFFFF" stroke="#545872" stroke-width="4" stroke-linecap="round" stroke-linejoin="round" stroke-miterlimit="10" points="
	120,30 120,60 150,60 "/>
<g display="none">
	<rect x="60" y="40" display="inline" fill="#8A91AD" width="45.001" height="30"/>
	<g display="inline">
		<polygon fill="#FFFFFF" points="85.501,58 85.501,59.404 101.396,70 103.648,70 85.648,58 		"/>
		<polygon fill="#FFFFFF" points="105.001,69.099 105.001,67.596 90.606,58 88.353,58 		"/>
		<polygon fill="#FFFFFF" points="60,40.901 60,42.404 74.395,52 76.648,52 		"/>
		<polygon fill="#FFFFFF" points="79.501,52 79.501,50.597 63.605,40 61.352,40 79.353,52 		"/>
		<polygon fill="#FFFFFF" points="90.606,52 105.001,42.404 105.001,40.901 88.353,52 		"/>
		<polygon fill="#FFFFFF" points="74.395,58 60,67.596 60,69.099 76.648,58 		"/>
		<polygon fill="#FFFFFF" points="85.648,52 103.648,40 101.396,40 85.501,50.596 85.501,52 		"/>
		<polygon fill="#FFFFFF" points="79.353,58 61.352,70 63.605,70 79.501,59.403 79.501,58 		"/>
		<polygon fill="#FFFFFF" points="85.648,58 85.501,57.902 85.501,58 		"/>
		<polygon fill="#FFFFFF" points="79.353,52 79.501,52.099 79.501,52 		"/>
		<polygon fill="#FFFFFF" points="86.478,56.75 88.353,58 90.606,58 105.001,58 105.001,56.75 		"/>
		<polygon fill="#FFFFFF" points="78.523,53.25 76.648,52 74.395,52 60,52 60,53.25 		"/>
		<polygon fill="#FFFFFF" points="79.501,58 79.501,57.901 79.353,58 		"/>
		<polygon fill="#FFFFFF" points="85.501,52.098 85.648,52 85.501,52 		"/>
		<polygon fill="#FFFFFF" points="86.478,53.25 105.001,53.25 105.001,52 90.606,52 88.353,52 		"/>
		<polygon fill="#FFFFFF" points="78.523,56.75 60,56.75 60,58 74.395,58 76.648,58 		"/>
		<polygon fill="#FFFFFF" points="80.751,57.068 79.501,57.901 79.501,58 79.501,59.403 79.501,70 80.751,70 		"/>
		<polygon fill="#FFFFFF" points="84.251,52.932 85.501,52.098 85.501,52 85.501,50.596 85.501,40 84.251,40 		"/>
		<polygon fill="#FFFFFF" points="79.501,52.099 80.751,52.932 80.751,40 79.501,40 79.501,50.597 79.501,52 		"/>
		<polygon fill="#FFFFFF" points="85.501,57.902 84.251,57.068 84.251,70 85.501,70 85.501,59.404 85.501,58 		"/>
		<polygon fill="#B6BACE" points="80.751,52.932 81.228,53.25 83.773,53.25 84.251,52.932 84.251,40 80.751,40 		"/>
		<polygon fill="#B6BACE" points="84.251,57.068 83.773,56.75 81.228,56.75 80.751,57.068 80.751,70 84.251,70 		"/>
		<polygon fill="#B6BACE" points="78.523,56.75 81.148,55 78.523,53.25 60,53.25 60,56.75 		"/>
		<polygon fill="#B6BACE" points="86.478,53.25 83.853,55 86.478,56.75 105.001,56.75 105.001,53.25 		"/>
		<polygon fill="#B6BACE" points="81.228,56.75 83.773,56.75 82.5,55.901 		"/>
		<polygon fill="#B6BACE" points="81.228,53.25 82.5,54.099 83.773,53.25 		"/>
		<polygon fill="#B6BACE" points="88.353,58 86.478,56.75 83.853,55 82.5,55.901 83.773,56.75 84.251,57.068 85.501,57.902
			85.648,58 103.648,70 105.001,70 105.001,69.099 		"/>
		<polygon fill="#B6BACE" points="78.523,53.25 81.148,55 82.5,54.099 81.228,53.25 80.751,52.932 79.501,52.099 79.353,52
			61.352,40 60,40 60,40.901 76.648,52 		"/>
		<polygon fill="#B6BACE" points="79.501,57.901 80.751,57.068 81.228,56.75 82.5,55.901 83.853,55 86.478,53.25 88.353,52
			105.001,40.901 105.001,40 103.648,40 85.648,52 85.501,52.098 84.251,52.932 83.773,53.25 82.5,54.099 81.148,55 78.523,56.75
			76.648,58 60,69.099 60,70 61.352,70 79.353,58 		"/>
	</g>
</g>
<g>
	<rect x="60" y="40" fill="#8A91AD" width="15" height="30"/>
	<rect x="90" y="40" fill="#B6BACE" width="15" height="30"/>
</g>
<g>
	<path fill="#B6BACE" d="M128.286,150c-4.119-11.65-15.226-20-28.286-20c-13.061,0-24.167,8.35-28.286,20H128.286z"/>
	<circle fill="#B6BACE" cx="100" cy="110" r="15"/>
</g>
</svg>
