<?xml version="1.0" encoding="utf-8"?>
<!-- Generator: Adobe Illustrator 16.0.3, SVG Export Plug-In . SVG Version: 6.00 Build 0)  -->
<!DOCTYPE svg PUBLIC "-//W3C//DTD SVG 1.1//EN" "http://www.w3.org/Graphics/SVG/1.1/DTD/svg11.dtd">
<svg version="1.1" id="Calque_1" xmlns="http://www.w3.org/2000/svg" xmlns:xlink="http://www.w3.org/1999/xlink"
  x="0px" y="0px"
	width="612.889px" height="202.466px" viewBox="0 0 612.889 202.466" enable-background="new 0 0 612.889 202.466"
	 xml:space="preserve">
<path fill="#FFFFFF" d="M111.237,169.812c1.825,1.984,3.731,3.848,5.683,5.637c-0.35-0.352-0.688-0.703-1.017-1.012
	C112.86,171.421,111.237,169.812,111.237,169.812z"/>
<path fill="#FFFFFF" d="M120.104,178.234c0.687,0.574,1.372,1.148,2.071,1.701c-0.115-0.094-0.237-0.199-0.352-0.291
	C121.228,179.156,120.654,178.687,120.104,178.234z"/>
<path fill="#FFFFFF" d="M118.039,176.492c-0.003,0-0.006-0.004-0.008-0.006C118.033,176.488,118.036,176.492,118.039,176.492z"/>
<path fill="#4A6EB4" d="M286.879,97.59c-0.188-2.578-0.276-5.186-0.596-7.77c-1.239-10.375-4.264-20.605-8.578-30.344
	c-1.199-2.373-2.382-4.766-3.64-7.123l-0.944-1.771l-1.168-1.803l-2.371-3.592l-2.424-3.561c-0.201-0.283-0.419-0.617-0.606-0.855
	l-0.545-0.66l-1.089-1.322l-4.367-5.281c-1.123-1.275-0.414-0.455-0.711-0.783l-0.179-0.176l-0.357-0.352l-0.717-0.701l-1.436-1.398
	l-2.88-2.785c-1.86-1.92-3.979-3.557-6.082-5.207l-3.149-2.477l-1.578-1.232l-1.681-1.088l-6.806-4.201
	c-2.311-1.311-4.748-2.396-7.116-3.582c-1.199-0.563-2.369-1.189-3.592-1.689l-3.713-1.389l-3.726-1.322
	c-1.232-0.459-2.479-0.869-3.764-1.156c-2.541-0.635-5.077-1.268-7.609-1.9c-2.549-0.523-5.133-0.859-7.693-1.219
	c-1.284-0.152-2.554-0.385-3.841-0.463l-3.857-0.17l-3.837-0.148L184.317,0c-0.637,0.008-1.274,0.057-1.91,0.084
	c-2.544,0.119-5.073,0.277-7.582,0.465c-10.008,1.236-19.705,3.496-28.578,7.34l-1.678,0.65l-1.617,0.797l-3.203,1.607
	c-2.105,1.113-4.259,2.066-6.197,3.418c-1.965,1.266-3.921,2.527-5.866,3.779c-1.931,1.277-3.806,2.914-5.659,4.346
	c-4.006,2.975-6.471,5.834-9.437,8.689l-1.377,1.35l-1.055,1.256l-2.086,2.494c-1.347,1.688-2.818,3.229-4.005,4.992
	c-1.183,1.754-2.358,3.494-3.525,5.223c-0.563,0.871-1.186,1.691-1.687,2.594c-0.489,0.906-0.977,1.811-1.462,2.711
	c-0.958,1.789-1.908,3.566-2.851,5.33c-0.817,1.822-1.539,3.672-2.305,5.467c-1.665,3.529-2.644,7.258-3.777,10.805
	c-0.622,1.758-0.936,3.592-1.316,5.375c-0.385,1.775-0.767,3.535-1.145,5.275c-1.72,10.184-1.722,19.803-0.747,28.531h3.258
	c-0.041-1.217,0.031-2.449,0.089-3.695c0.075-1.488,0.152-2.998,0.23-4.527c0.006-1.525,0.353-3.055,0.55-4.604
	c0.237-1.541,0.479-3.102,0.723-4.682c0.695-3.115,1.565-6.264,2.439-9.443c2.164-6.266,4.854-12.6,8.638-18.521
	c0.945-1.48,1.872-2.977,2.858-4.443c1.101-1.389,2.21-2.789,3.327-4.199l1.663-2.109c0.563-0.697,1.246-1.311,1.862-1.971
	c1.254-1.293,2.518-2.596,3.789-3.908c1.254-1.313,2.777-2.393,4.149-3.605l2.109-1.775l1.053-0.891
	c0.317-0.273-0.285,0.248-0.164,0.154l0.155-0.107l0.312-0.215l0.623-0.432c3.29-2.217,6.812-4.953,9.866-6.287
	c1.609-0.799,3.033-1.709,4.753-2.438c1.726-0.715,3.46-1.434,5.203-2.156c1.688-0.811,3.559-1.223,5.348-1.797l2.694-0.838
	l1.343-0.424l1.393-0.283c1.841-0.383,3.689-0.768,5.546-1.152c1.848-0.373,3.771-0.426,5.637-0.691l2.811-0.346l2.85-0.064
	c1.899-0.006,3.785-0.158,5.682-0.07c7.602,0.227,15.113,1.621,22.409,3.637c1.79,0.613,3.583,1.23,5.379,1.848
	c0.91,0.264,1.779,0.643,2.632,1.063l2.584,1.182l2.604,1.119c0.856,0.398,1.658,0.914,2.491,1.359
	c1.636,0.951,3.343,1.771,4.934,2.791c3.087,2.199,6.291,4.199,9.129,6.725c1.472,1.188,2.976,2.34,4.25,3.762l2.008,2.016
	l1.01,1.004l0.506,0.498l0.254,0.25l0.122,0.121l3.992,4.779l1.101,1.313l0.551,0.656c0.166,0.209,0.241,0.367,0.367,0.551
	c0.453,0.719,0.923,1.422,1.4,2.121l1.45,2.086l0.742,1.035l0.681,1.238c0.896,1.66,1.867,3.281,2.818,4.918
	c0.884,1.67,1.561,3.438,2.372,5.145c0.375,0.867,0.823,1.709,1.148,2.594l0.892,2.689c0.293,0.898,0.624,1.785,0.947,2.676
	c0.349,0.885,0.653,1.781,0.841,2.709c0.466,1.84,0.932,3.676,1.396,5.508c1.353,7.436,2.18,15.027,1.735,22.611
	c-0.069,1.895-0.375,3.762-0.537,5.652c-0.104,0.941-0.176,1.891-0.299,2.828l-0.576,2.77c-0.429,1.836-0.644,3.742-1.163,5.555
	c-0.536,1.813-1.071,3.621-1.604,5.426c-2.529,7.051-5.475,14.09-9.779,20.184c-1.895,3.25-4.41,5.977-6.695,8.902l-0.436,0.543
	l-0.218,0.27l-0.108,0.137c-0.099,0.105,0.493-0.418,0.178-0.133l-1.07,1.063l-2.133,2.121l-2.118,2.102
	c-0.702,0.691-1.415,1.453-2.075,1.934c-1.35,1.109-2.69,2.211-4.022,3.305c-0.685,0.543-1.304,1.145-2.042,1.645l-2.237,1.484
	c-1.496,0.996-2.981,1.988-4.455,2.969c-1.54,0.863-3.11,1.656-4.657,2.484c-6.21,3.285-12.742,5.434-19.158,7.086
	c-3.24,0.609-6.448,1.219-9.61,1.652c-1.593,0.117-3.168,0.23-4.723,0.34c-1.56,0.07-3.111,0.289-4.633,0.168
	c-1.53-0.047-3.039-0.094-4.529-0.145c-1.492-0.051-2.979-0.039-4.411-0.285c-1.443-0.195-2.866-0.391-4.268-0.578
	c-1.396-0.23-2.805-0.324-4.124-0.711c-2.663-0.668-5.271-1.25-7.761-1.926c-2.43-0.848-4.785-1.664-7.028-2.504
	c-2.246-0.836-4.246-1.988-6.247-2.898c-0.991-0.48-1.959-0.945-2.903-1.402c-0.896-0.547-1.77-1.078-2.62-1.594
	c-1.696-1.051-3.303-2.043-4.814-2.977c-1.468-1-2.732-2.09-3.971-3.023c-1.222-0.957-2.354-1.844-3.39-2.652
	c-1.024-0.824-1.821-1.727-2.606-2.453c-3.068-2.988-4.705-4.582-4.705-4.582s1.623,1.609,4.666,4.625
	c0.329,0.309,0.667,0.66,1.017,1.012c0.341,0.344,0.721,0.688,1.111,1.037c0.002,0.002,0.005,0.006,0.008,0.006
	c0.155,0.141,0.286,0.281,0.453,0.418c0.514,0.422,1.051,0.863,1.611,1.324c0.551,0.453,1.124,0.922,1.72,1.41
	c0.114,0.092,0.236,0.197,0.352,0.291c1.106,0.9,2.242,1.902,3.552,2.846c1.477,1,3.045,2.066,4.702,3.191
	c6.707,4.336,15.395,9.066,26.261,12.211c10.812,3.164,23.714,5.125,37.936,3.93c1.767-0.227,3.552-0.461,5.355-0.695
	c1.811-0.23,3.665-0.387,5.469-0.863c3.631-0.836,7.432-1.5,11.09-2.863c1.857-0.602,3.758-1.176,5.646-1.836
	c1.836-0.793,3.688-1.594,5.553-2.398c0.938-0.41,1.88-0.82,2.825-1.23c0.944-0.426,1.861-1.008,2.802-1.516
	c1.881-1.066,3.774-2.145,5.682-3.227c1.021-0.547,1.771-1.113,2.595-1.676l2.457-1.699l2.473-1.707l1.242-0.859l1.549-1.316
	c3.287-2.887,6.847-5.664,9.832-9.094c6.428-6.457,11.841-14.254,16.403-22.742c4.576-8.531,7.612-18.023,9.689-27.898
	c0.401-2.484,0.732-5,1.079-7.523c0.08-0.633,0.182-1.266,0.242-1.898l0.092-1.91l0.17-3.839l0.151-3.861
	C287.051,100.17,286.925,98.885,286.879,97.59z"/>
<path fill="#4A6EB4" d="M108.197,166.218c1.982,2.344,3.04,3.594,3.04,3.594s-1.057-1.293-3.04-3.719V166.218z"/>

<g>
<!-- Gael text in Logo -->
  <path fill="#010202" d="M52.08,136.476c0,9.48-2.224,16.574-6.67,21.285c-5.231,5.293-11.803,7.941-19.714,7.941
    c-7.454,0-13.731-2.547-18.831-7.648c-3.009-3.008-4.904-6.504-5.688-10.496C0.392,143.636,0,137.851,0,130.199
    c0-7.648,0.392-13.438,1.177-17.359c0.784-3.986,2.68-7.485,5.688-10.495c5.1-5.1,11.377-7.65,18.831-7.65
    c7.519,0,13.665,2.191,18.439,6.572c4.249,3.988,6.865,9.252,7.846,15.792h-13.73c-1.701-6.801-5.885-10.201-12.555-10.201
    c-3.662,0-6.571,1.244-8.729,3.729c-2.224,2.809-3.335,9.348-3.335,19.613c0,10.527,1.111,17.102,3.335,19.715
    c2.025,2.418,4.936,3.629,8.729,3.629c4.054,0,7.29-1.309,9.71-3.922c2.092-2.418,3.139-5.527,3.139-9.32v-2.648H25.696
    v-11.375H52.08V136.476z"/>
  <path fill="#010202" d="M92.782,95.185l25.501,69.932h-14.222l-4.12-12.359h-0.098l-12.162-36.977l-8.827,25.5h8.631
    l3.825,11.477H75.029l-4.217,12.359H56.591l25.402-69.932H92.782z"/>
  <path fill="#010202" d="M126.422,165.117V95.284h45.999v12.163h-32.366v16.377h27.561v12.164h-27.561v16.965h32.366v12.164
    H126.422z"/>
  <path fill="#010202" d="M185.76,165.117V95.284h13.633v57.668h31.68v12.164H185.76z"/>
</g>
</svg>
