<svg xmlns="http://www.w3.org/2000/svg" width="112.68" height="160.9" viewBox="0 0 112.68 160.9">
<path fill="#545872" d="M.1 155.55h4.08v.41h-1.8v4.73H1.9v-4.73H.1v-.42zM5.37 155.55h3.55v.41H5.86v1.86h2.87v.42H5.86v2.03h3.1v.42H5.37v-5.15zM14.12 157.1a1.56 1.56 0 0 0-1.57-1.25c-1.37 0-1.94 1.14-1.94 2.27 0 1.12.57 2.26 1.94 2.26.95 0 1.55-.74 1.64-1.65h.5c-.14 1.26-.94 2.07-2.14 2.07-1.63 0-2.43-1.28-2.43-2.68 0-1.4.8-2.68 2.43-2.68.97 0 1.93.58 2.06 1.66h-.49zM16.15 155.55h.49v2.23h3.05v-2.23h.49v5.14h-.49v-2.5h-3.05v2.5h-.5v-5.14zM21.93 155.55h.55l3 4.35v-4.35h.5v5.14h-.55l-3-4.35h-.01v4.35h-.49v-5.14zM29.87 160.38c1.36 0 1.93-1.14 1.93-2.26 0-1.13-.57-2.27-1.93-2.27-1.36 0-1.93 1.14-1.93 2.27 0 1.12.57 2.26 1.93 2.26m0-4.94c1.62 0 2.42 1.27 2.42 2.68 0 1.4-.8 2.68-2.42 2.68-1.62 0-2.42-1.28-2.42-2.68 0-1.4.8-2.68 2.42-2.68M33.77 155.55h.49v4.72h2.88v.42h-3.37v-5.14zM40.51 160.38c1.36 0 1.93-1.14 1.93-2.26 0-1.13-.57-2.27-1.93-2.27-1.36 0-1.94 1.14-1.94 2.27 0 1.12.58 2.26 1.94 2.26m0-4.94c1.62 0 2.42 1.27 2.42 2.68 0 1.4-.8 2.68-2.42 2.68-1.62 0-2.43-1.28-2.43-2.68 0-1.4.81-2.68 2.43-2.68M48.8 160.69h-.35l-.07-.94h-.01c-.35.74-1.04 1.05-1.78 1.05-1.62 0-2.43-1.28-2.43-2.68 0-1.4.81-2.68 2.43-2.68 1.08 0 1.96.58 2.15 1.7h-.5c-.06-.59-.67-1.28-1.65-1.28-1.36 0-1.94 1.13-1.94 2.26 0 1.12.58 2.26 1.94 2.26 1.14 0 1.8-.8 1.78-1.89h-1.75v-.42h2.18v2.62zM51.9 158.57l-2.03-3.02h.59l1.7 2.6 1.68-2.6h.58l-2.03 3.02v2.12h-.5v-2.12zM59.14 156.59c0 .36.36.76.58 1.04.36-.23.8-.54.8-1.04 0-.43-.32-.66-.7-.66-.37 0-.68.23-.68.66m.43 1.53c-.5.27-1.05.66-1.05 1.28 0 .6.53 1.01 1.11 1.01.51 0 .93-.32 1.22-.73l-1.28-1.56zm1.56 1.9c-.37.47-.9.78-1.51.78-.89 0-1.56-.52-1.56-1.44 0-.74.69-1.22 1.26-1.53-.28-.37-.63-.74-.63-1.24 0-.63.51-1.05 1.14-1.05.62 0 1.14.42 1.14 1.05 0 .64-.5 1-1.01 1.33l1.12 1.36c.12-.26.15-.48.15-.87h.46c0 .29-.07.8-.3 1.23l.86 1.05h-.57l-.55-.67zM66.17 155.54h.5v5.15h-.5v-5.15zM68.45 155.55H69l3 4.35v-4.35h.5v5.14h-.55l-3-4.35h-.01v4.35h-.5v-5.14zM74.24 155.55h.55l3 4.35v-4.35h.5v5.14h-.55l-3-4.35h-.01v4.35h-.5v-5.14zM82.18 160.38c1.36 0 1.93-1.14 1.93-2.26 0-1.13-.57-2.27-1.93-2.27-1.36 0-1.93 1.14-1.93 2.27 0 1.12.57 2.26 1.93 2.26m0-4.94c1.62 0 2.42 1.27 2.42 2.68 0 1.4-.8 2.68-2.42 2.68-1.62 0-2.42-1.28-2.42-2.68 0-1.4.8-2.68 2.42-2.68M85.52 155.55h.52l1.67 4.6h.02l1.66-4.6h.51l-1.9 5.14h-.57l-1.91-5.14zM91.4 158.67h2.03l-1-2.63-1.02 2.63zm.79-3.12h.54l2.02 5.14h-.52l-.63-1.6h-2.34l-.62 1.6h-.53l2.08-5.14zM94.9 155.55h4.07v.41h-1.8v4.73h-.48v-4.73h-1.8v-.42zM100.2 155.54h.5v5.15h-.5v-5.15zM104.64 160.38c1.35 0 1.93-1.14 1.93-2.26 0-1.13-.58-2.27-1.93-2.27-1.36 0-1.94 1.14-1.94 2.27 0 1.12.58 2.26 1.94 2.26m0-4.94c1.61 0 2.42 1.27 2.42 2.68 0 1.4-.8 2.68-2.42 2.68-1.62 0-2.43-1.28-2.43-2.68 0-1.4.8-2.68 2.43-2.68M108.54 155.55h.54l3 4.35h.01v-4.35h.5v5.14h-.55l-3-4.35h-.01v4.35h-.5v-5.14zM.1 146.92v-11.97c.81.52 5.04 3.32 5.58 3.69.57-.4 5-3.27 5.62-3.7v11.98H8.35v-6.32c-.44.3-2.31 1.47-2.67 1.68l-2.65-1.68v6.32H.1zM17.68 139.52l-.87 2.53h1.79l-.92-2.53m-2.56 7.4H11.9c.09-.24 4.17-11.55 4.24-11.78h3.07l4.44 11.78H20.4l-.73-1.97H15.8l-.68 1.97M24.26 146.92v-12.01c.48.42 5.87 5.27 6.45 5.76v-5.53h2.96v12.01c-.59-.5-5.94-5.31-6.44-5.76v5.53h-2.97zM40.04 139.52l-.87 2.53h1.79l-.92-2.53m-2.56 7.4h-3.22c.1-.24 4.17-11.55 4.24-11.78h3.08L46 146.92h-3.25l-.72-1.97h-3.87l-.7 1.97M56.3 136.87l-2.1 2.16a3.12 3.12 0 0 0-2.45-1.24 3.17 3.17 0 0 0-3.18 3.25c0 1.84 1.45 3.3 3.14 3.3 1.03 0 1.98-.44 2.5-1.25h-2.66v-2.69h6.3l.01.5a6.14 6.14 0 1 1-12.3.14c0-3.2 2.58-6.18 6.24-6.18 1.94 0 3.52.95 4.5 2.01M58.9 146.92v-11.78h9.37v2.91h-6.4v1.54h4.93v2.9h-4.93v1.52h6.4v2.91H58.9zM69.82 146.92v-11.97c.82.52 5.03 3.32 5.58 3.69.57-.4 5-3.27 5.62-3.7v11.98h-2.95v-6.32c-.44.3-2.31 1.47-2.67 1.68-.39-.23-2.22-1.41-2.65-1.68v6.32h-2.93zM82.9 146.92v-11.78h9.36v2.91h-6.4v1.54h4.93v2.9h-4.93v1.52h6.4v2.91H82.9zM93.81 146.92v-12.01c.48.42 5.87 5.27 6.45 5.76v-5.53h2.95v12.01c-.58-.5-5.94-5.31-6.43-5.76v5.53H93.8zM106.66 146.92v-8.87h-2.88v-2.91h8.8v2.91h-2.88v8.87h-3.04zM13.9 129.26v-11.79h9.36v2.92h-6.4v1.54h4.93v2.9h-4.92v1.51h6.39v2.92H13.9zM32.53 121.34c-.44-.42-1.1-1.2-2.45-1.2a3.23 3.23 0 0 0 0 6.45 3.3 3.3 0 0 0 2.5-1.3l2.06 2.08a6.31 6.31 0 0 1-4.56 2.17 6.16 6.16 0 1 1 4.53-10.34l-2.08 2.14"/>
<path fill="#545872" d="M37.5 123.38a3.16 3.16 0 0 0 3.18 3.23c1.8 0 3.16-1.42 3.16-3.23a3.17 3.17 0 1 0-6.34 0m-3 0a6.17 6.17 0 1 1 12.35 0c0 3.4-2.76 6.16-6.17 6.16a6.17 6.17 0 0 1-6.18-6.16M58.72 129.26v-11.79h9.37v2.92h-6.4v1.54h4.93v2.9H61.7v1.51h6.4v2.92h-9.37zM80.24 120.35v6h1.93a3.04 3.04 0 0 0 3.04-2.97 2.97 2.97 0 0 0-3.1-3.03h-1.87zm-2.98 8.9v-11.78h4.92a5.85 5.85 0 0 1 6.03 5.9c0 3.5-2.83 5.89-6 5.89h-4.95zM89.42 129.26v-11.79h9.37v2.92h-6.4v1.54h4.93v2.9h-4.93v1.51h6.4v2.92h-9.37zM53.31 126.4H51.1v-8.93h-3.02v11.79h9.38v-2.86H53.3zM21.21 101.54l-2.1 2.15a3.12 3.12 0 0 0-2.45-1.23 3.17 3.17 0 0 0-3.18 3.25c0 1.84 1.45 3.3 3.14 3.3a2.9 2.9 0 0 0 2.5-1.25h-2.66v-2.69h6.3v.5a6.14 6.14 0 1 1-12.3.14c.01-3.2 2.6-6.18 6.25-6.18a6.2 6.2 0 0 1 4.5 2.01M26.8 104.84h3c.64 0 1.22-.38 1.22-1.06 0-.7-.55-1.07-1.22-1.07h-3v2.13zm-2.99 6.75V99.81h6.28a3.87 3.87 0 0 1 3.95 3.97 3.78 3.78 0 0 1-2.31 3.52l2.54 4.3h-3.72l-2.21-3.9H26.8v3.9H23.8zM35.43 111.6V99.8h9.37v2.92h-6.4v1.54h4.93v2.9H38.4v1.52h6.4v2.91h-9.37zM46.35 111.6V99.57c.47.42 5.86 5.26 6.44 5.76V99.8h2.95v12.01c-.58-.5-5.93-5.32-6.43-5.76v5.53h-2.96zM59.96 105.7a3.16 3.16 0 0 0 3.18 3.24c1.8 0 3.17-1.41 3.17-3.23a3.17 3.17 0 1 0-6.35 0m-3 0a6.17 6.17 0 1 1 6.18 6.17 6.17 6.17 0 0 1-6.18-6.17M73.43 108.71h3.32c.55 0 .89-.42.89-.86a.85.85 0 0 0-.9-.89h-3.31v1.75zm0-4.61h3.13c.48 0 .76-.3.76-.7 0-.41-.28-.71-.76-.71h-3.13v1.41zm5.57 1.11c.97.25 1.85 1.2 1.85 2.83a3.52 3.52 0 0 1-3.62 3.55h-6.7V99.81h6.72c1.6 0 3.04 1.3 3.04 2.96 0 1.14-.57 2.04-1.3 2.44M92.85 111.6V99.8h9.36v2.92h-6.4v1.54h4.93v2.9h-4.93v1.52h6.4v2.91h-9.36zM88.64 108.73h-3.43v-8.92H82.2v11.78h9.38v-2.86h-2.93zM96.8 30.92L56.43 41.95l3.7 13.54L75.8 51.2a21.36 21.36 0 0 1-40.59-9.25A21.38 21.38 0 0 1 56.44 20.6V.1a41.64 41.64 0 0 0-41.81 41.82 41.82 41.82 0 1 0 82.17-11"/>
</svg>
