<?xml version="1.0" encoding="utf-8"?>
<!-- Generator: Adobe Illustrator 16.0.3, SVG Export Plug-In . SVG Version: 6.00 Build 0)  -->
<svg version="1.2" baseProfile="tiny" id="Layer_1" xmlns="http://www.w3.org/2000/svg" xmlns:xlink="http://www.w3.org/1999/xlink"
	 x="0px" y="0px" width="200px" height="200px" viewBox="0 0 200 200" xml:space="preserve">
<path fill="#F5F6FC" d="M42.5,80.5H180l-30,70H60L42.5,80.5z"/>
<path fill="none" stroke="#545872" stroke-width="8" stroke-linecap="round" stroke-linejoin="round" stroke-miterlimit="10" d="
	M20,60.5h10c10,0,10,10,10,10l20,80h90l30-70H45"/>
<circle fill="#C5CAE9" stroke="#545872" stroke-width="8" stroke-linecap="round" stroke-linejoin="round" stroke-miterlimit="10" cx="70" cy="170.5" r="10"/>
<circle fill="#C5CAE9" stroke="#545872" stroke-width="8" stroke-linecap="round" stroke-linejoin="round" stroke-miterlimit="10" cx="140" cy="170.5" r="10"/>
<path fill="#545872" d="M105.512,139.994c-1.64,0-2.926-0.485-3.824-1.443c-0.89-0.947-1.34-2.275-1.34-3.943
	c0-3.463,1.786-5.293,5.165-5.293c1.657,0,2.953,0.475,3.854,1.408c0.893,0.928,1.345,2.234,1.345,3.885
	c0,1.625-0.456,2.94-1.354,3.91C108.443,139.497,107.15,139.994,105.512,139.994z M102.148,124.982c-0.276,0-0.5-0.225-0.5-0.5
	v-2.031c0-2.402,0.447-4.438,1.33-6.049c0.875-1.598,2.414-3.262,4.574-4.946c2.463-1.946,4.065-3.466,4.762-4.517
	c0.672-1.012,1.014-2.242,1.014-3.658c0-1.633-0.521-2.844-1.592-3.705c-1.088-0.875-2.702-1.318-4.797-1.318
	c-1.946,0-3.772,0.28-5.428,0.831c-1.694,0.566-3.349,1.247-4.951,2.037c-0.12,0.06-0.259,0.069-0.386,0.024
	c-0.125-0.043-0.229-0.137-0.287-0.256l-2.666-5.586c-0.114-0.238-0.022-0.524,0.208-0.652c4.291-2.406,9.13-3.663,14.05-3.649
	c4.246,0,7.676,1.064,10.189,3.163c2.541,2.122,3.829,5.081,3.829,8.794c0,1.64-0.245,3.124-0.729,4.413
	c-0.482,1.286-1.223,2.525-2.195,3.684c-0.959,1.144-2.623,2.642-4.946,4.453c-1.914,1.502-3.207,2.754-3.842,3.721
	c-0.608,0.929-0.917,2.214-0.917,3.822v1.428c0,0.275-0.225,0.5-0.5,0.5h-6.221V124.982z"/>
<path fill="#F5F6FC" d="M107.48,91.506c4.146,0,7.437,1.016,9.869,3.047c2.434,2.031,3.649,4.835,3.649,8.411
	c0,1.587-0.231,2.999-0.696,4.237c-0.467,1.236-1.171,2.417-2.111,3.539c-0.941,1.121-2.565,2.582-4.871,4.38
	c-1.969,1.545-3.285,2.825-3.952,3.84c-0.666,1.017-0.999,2.38-0.999,4.095v1.428h-6.221v-2.03c0-2.328,0.422-4.265,1.27-5.81
	c0.846-1.543,2.327-3.142,4.443-4.791c2.518-1.99,4.142-3.533,4.871-4.635c0.729-1.1,1.096-2.412,1.096-3.936
	c0-1.777-0.594-3.142-1.777-4.094c-1.186-0.952-2.889-1.428-5.109-1.428c-2.012,0-3.873,0.286-5.586,0.857
	c-1.714,0.571-3.386,1.259-5.016,2.063l-2.666-5.587C97.969,92.702,102.57,91.506,107.48,91.506 M105.512,129.814
	c1.523,0,2.688,0.418,3.492,1.254c0.805,0.836,1.205,2.016,1.205,3.539c0,1.502-0.407,2.69-1.223,3.569
	c-0.813,0.878-1.973,1.316-3.475,1.316c-1.503,0-2.656-0.429-3.46-1.285c-0.805-0.856-1.206-2.058-1.206-3.603
	C100.848,131.412,102.402,129.814,105.512,129.814 M107.48,90.506c-5.005-0.014-9.929,1.265-14.293,3.713
	c-0.461,0.257-0.644,0.828-0.416,1.304l2.666,5.586c0.165,0.348,0.517,0.57,0.902,0.568c0.152,0,0.304-0.035,0.442-0.103
	c1.582-0.781,3.215-1.453,4.889-2.011c1.604-0.535,3.377-0.806,5.27-0.806c1.979,0,3.486,0.406,4.484,1.208
	c0.944,0.759,1.403,1.843,1.403,3.313c0,1.336-0.304,2.441-0.929,3.383c-0.668,1.007-2.234,2.488-4.658,4.402
	c-2.211,1.724-3.793,3.438-4.7,5.097c-0.924,1.687-1.394,3.802-1.394,6.289v2.03c0,0.553,0.448,1,1,1h6.222c0.552,0,1-0.447,1-1
	v-1.428c0-1.509,0.28-2.701,0.835-3.547c0.604-0.92,1.861-2.132,3.732-3.602c2.383-1.857,4.024-3.338,5.021-4.523
	c1.01-1.203,1.776-2.49,2.28-3.829c0.507-1.346,0.763-2.89,0.763-4.59c0-3.869-1.349-6.957-4.009-9.178
	C115.385,91.609,111.848,90.506,107.48,90.506z M105.512,128.814c-3.652,0-5.665,2.058-5.665,5.793c0,1.8,0.497,3.24,1.477,4.285
	c0.996,1.062,2.404,1.602,4.188,1.602c1.784,0,3.2-0.551,4.209-1.637c0.987-1.065,1.488-2.496,1.488-4.25
	c0-1.784-0.499-3.209-1.484-4.232C108.729,129.34,107.311,128.814,105.512,128.814z"/>
</svg>
