<?xml version="1.0" encoding="utf-8"?>
<!-- Generator: Adobe Illustrator 16.0.3, SVG Export Plug-In . SVG Version: 6.00 Build 0)  -->
<svg version="1.2" baseProfile="tiny" id="Layer_1" xmlns="http://www.w3.org/2000/svg" xmlns:xlink="http://www.w3.org/1999/xlink"
	 x="0px" y="0px" width="200px" height="200px" viewBox="0 0 200 200" xml:space="preserve">
<path fill="#C5CAE9" d="M139.955,39.391L138.098,90.7h8l-1.855-51.309H139.955z"/>
<path fill="#F5F6FC" stroke="#545872" stroke-width="6" stroke-linecap="round" stroke-linejoin="round" stroke-miterlimit="10" d="
	M50,170V95l50-25l50,25v75H50z"/>
<path fill="none" stroke="#545872" stroke-width="6" stroke-linecap="round" stroke-linejoin="round" stroke-miterlimit="10" d="
	M100,70l60,30 M100,70l-60,30"/>
<path fill="#545872" stroke="#545872" stroke-width="2" stroke-linecap="round" stroke-linejoin="round" stroke-miterlimit="10" d="
	M160.5,59.828l-19.115-18.241l2.973-2.676L160.5,59.828z M140.553,37.675l10.043-24.438l-6.238,25.674L140.553,37.675z"/>
<path fill="#545872" stroke="#545872" stroke-width="2" stroke-linecap="round" stroke-linejoin="round" stroke-miterlimit="10" d="
	M115.2,45.108l25.353-7.433l0.832,3.912L115.2,45.108z"/>
<circle fill="#545872" cx="142.098" cy="39.391" r="4.311"/>
<path fill="none" stroke="#545872" stroke-width="6" stroke-linecap="round" stroke-miterlimit="10" d="M85.859,139.143
	c-7.817-7.816-7.818-20.469-0.001-28.285 M85.859,139.143c7.816,7.816,20.467,7.816,28.284,0 M114.143,110.857
	c7.816,7.815,7.817,20.468,0,28.285 M100,105v20"/>
</svg>
