<svg version="1.2" baseProfile="tiny" xmlns="http://www.w3.org/2000/svg" width="200" height="200" viewBox="0 0 200 200">
    <path fill="#F5F6FC" d="M117.266 86.001c-4.739.472-10.494 3.176-17.266 9.948-5.804 5.803-17.573 8.618-27.64 9.986-2.763 4.965-5.968 10.61-9.651 17.055-8.112 14.195-20.326 35.57-21.372 40.93.206 6.259 7.3 13.262 13.535 13.262h90.257c6.233 0 13.328-7.003 13.534-13.262-1.046-5.359-13.259-26.732-21.37-40.928-9.922-17.362-16.384-28.922-20.027-36.991z"/>
    <path fill="none" stroke="#545872" stroke-width="8" stroke-linecap="round" stroke-linejoin="round" stroke-miterlimit="10" d="M80 40v40c0 9.999-40 70-40 80s10.001 20 20 20h80c10 0 20-10 20-20s-40-69.999-40-80V40s10 0 10-10-10-10-10-10H80s-10 0-10 10 10 10 10 10z"/>
    <path fill="#545872" d="M103.279 166.09c-5.628 0-10.271-1.57-13.801-4.666-3.441-3.018-5.743-7.396-6.847-13.021h-4.816a.5.5 0 0 1-.5-.5v-5.266a.5.5 0 0 1 .5-.5h4.152l-.04-.745-.001-1.3.053-1.737h-4.164a.5.5 0 0 1-.5-.5v-5.3a.5.5 0 0 1 .5-.5h4.734c.929-5.646 3.167-10.159 6.659-13.423 3.588-3.354 8.276-5.055 13.933-5.055 4.653 0 8.881 1.04 12.563 3.092a.5.5 0 0 1 .213.642l-2.891 6.434a.5.5 0 0 1-.677.243c-3.449-1.701-6.548-2.563-9.209-2.563-3.088 0-5.641.927-7.59 2.755-1.86 1.747-3.154 4.395-3.851 7.876h15.089a.5.5 0 0 1 .5.5v5.3a.5.5 0 0 1-.5.5H91.06l-.047 1.071v1.869l.043.842h13.565a.5.5 0 0 1 .5.5v5.266a.5.5 0 0 1-.5.5H91.788c1.527 6.549 5.427 9.735 11.904 9.735 3.202 0 6.531-.705 9.893-2.095a.498.498 0 0 1 .691.462v6.985a.499.499 0 0 1-.289.453c-3.06 1.424-6.663 2.146-10.708 2.146z"/>
    <path fill="#F5F6FC" d="M103.142 114.078c4.589 0 8.694 1.009 12.32 3.028l-2.891 6.434c-3.532-1.742-6.675-2.615-9.43-2.615-3.233 0-5.878.964-7.932 2.891-2.053 1.928-3.423 4.841-4.111 8.74h15.692v5.3H90.582l-.069 1.549v1.892l.069 1.342h14.04v5.266H91.167c1.468 7.157 5.643 10.735 12.525 10.735 3.282 0 6.643-.71 10.084-2.133v6.985c-3.007 1.398-6.503 2.099-10.497 2.099-5.529 0-10.019-1.514-13.471-4.542-3.453-3.028-5.707-7.409-6.762-13.145h-5.23v-5.266h4.68l-.069-1.272v-1.272l.069-2.237h-4.68v-5.3h5.161c.872-5.758 3.062-10.276 6.573-13.558 3.51-3.281 8.039-4.921 13.592-4.921m0-1c-5.788 0-10.59 1.746-14.274 5.189-3.487 3.259-5.751 7.727-6.739 13.288h-4.312a1 1 0 0 0-1 1v5.3a1 1 0 0 0 1 1h3.648l-.037 1.207v1.303l.001.054.012.219h-3.624a1 1 0 0 0-1 1v5.266a1 1 0 0 0 1 1h4.407c1.155 5.541 3.483 9.878 6.926 12.896 3.623 3.179 8.377 4.79 14.13 4.79 4.118 0 7.792-.737 10.919-2.191a1 1 0 0 0 .578-.907v-6.985a1 1 0 0 0-1.382-.924c-3.302 1.364-6.565 2.057-9.702 2.057-6.002 0-9.698-2.86-11.264-8.735h12.193a1 1 0 0 0 1-1v-5.266a1 1 0 0 0-1-1h-13.09l-.019-.367v-1.866l.025-.549h15.252a1 1 0 0 0 1-1v-5.3a1 1 0 0 0-1-1H92.319c.699-3.082 1.899-5.438 3.575-7.012 1.879-1.762 4.25-2.619 7.248-2.619 2.584 0 5.607.845 8.987 2.512a.993.993 0 0 0 .78.045 1 1 0 0 0 .574-.531l2.891-6.434a1 1 0 0 0-.426-1.284c-3.758-2.094-8.067-3.156-12.806-3.156z"/>
    <circle fill="#C5CAE9" cx="93.75" cy="64.25" r="5.5"/>
    <circle fill="#C5CAE9" cx="104.25" cy="50.5" r="4"/>
    <circle fill="#C5CAE9" cx="105.25" cy="76.75" r="6.75"/>
</svg>
