<svg xmlns="http://www.w3.org/2000/svg" width="419.08" height="271.6" viewBox="0 0 419.08 271.6">
<path fill="#545872" fill-rule="evenodd" d="M83.76.24l.03 1.92v121.17c0 8.16.11 16.31.17 24.46v1.27l-5.6 1.38c-1.48-2.31-2.35-5.02-2.98-7.83-.08-.35-.15-.7-.21-1.06-.33-1.86-.32-1.84-2.26-1.73-.87.05-1.75 0-2.55 0-.63 1.97-1.1 3.86-1.86 5.63-.77 1.78-1.82 3.43-2.55 4.76-2.4-.3-4.44-.84-6.46-.77a9.5 9.5 0 0 0-7.61 4.24c-2.67 3.95-6.16 6.3-10.7 7.65-4 1.2-7 3.87-7.9 8.22-.3 1.46-.28 2.99-.42 4.62-3.84 1.26-7.92 1.01-12.06.52l-1.32 4.5a24.74 24.74 0 0 1 9.11 7.75 11.2 11.2 0 0 0-2.45 5.48c-.37 2.92.2 5.75 2 7.94 3.03 3.7 3.88 7.82 3.83 12.46-.05 4.06 1.5 7.65 5.2 9.8 1.56.9 3.37 1.37 5.35 2.15-.52 1.43-1.03 3.18-1.77 4.82-.75 1.66-1.72 3.23-2.68 5l3.44 3.06a23.7 23.7 0 0 1 9.14-4.57c1.77-.63 3.04-.49 4.47 1.2 2.85 3.35 6.8 3.9 10.98 2.97 1.47-.32 2.96-.67 4.38-1.18a9.06 9.06 0 0 1 5.86.01c2.43.72 4.92 1.28 7.54 1.94v14.02c-.52.03-1.06.07-1.6.07l-80.38.01c-.55 0-1.1.08-1.66.12V.24h83.52zM180.96 265.44c-.04-.44-.11-.87-.12-1.3v-45.48-1.26h9.9v3.46c1.48-.95 2.76-1.97 4.2-2.68 6.25-3.07 13.05-1.37 18.02 4.27 6.59 7.46 6.29 23.23-5.44 29.25-4.81 2.48-11.88 2.24-16.2-2.88-.1-.13-.17-.27-.52-.31v16.93h-9.84zm9.57-30.43c.1.83.15 1.67.3 2.49a8.56 8.56 0 0 0 7.05 7.18c3.22.48 6.7-1.54 8.35-4.84a11.18 11.18 0 0 0-2.14-12.61 7.36 7.36 0 0 0-10.78.3c-1.94 2.12-2.7 4.66-2.78 7.48zM409.44 175.44h-25.75c.23 1.65.97 2.9 2.08 3.92 3.68 3.39 9.96 3.42 14 .1.38-.3.73-.62 1.18-1l5.52 5.96a19.43 19.43 0 0 1-6.6 4.32c-7.42 2.96-16.06 1.25-21.41-4.25-2.61-2.68-4-5.95-4.41-9.62-.6-5.38.1-10.46 3.7-14.8 7.12-8.57 21.6-8.6 28.42-.05a14.92 14.92 0 0 1 3.03 7.45c.05.34.16.67.24 1.01v6.96zM384 168.27h15.23a6.9 6.9 0 0 0-7.23-6.47c-4.07.02-7.7 2.9-8 6.47zM156.68 252.68c-3.54 0-6.97.02-10.4-.04-.28 0-.69-.45-.84-.79a324.97 324.97 0 0 1-3.45-8.03c-.31-.76-.7-1.09-1.58-1.08-5.67.04-11.35.04-17.03 0-.82 0-1.19.28-1.5 1.02-1.08 2.66-2.26 5.28-3.36 7.93-.3.72-.65 1.03-1.5 1.01-3.22-.06-6.45-.02-9.87-.02.21-.55.35-.95.52-1.33 6.26-14.51 12.54-29.02 18.78-43.54.33-.76.7-1.1 1.57-1.07 2.64.06 5.28.04 7.92.01.67 0 1.06.16 1.36.84 6.35 14.78 12.74 29.54 19.11 44.3.1.21.15.43.27.79zm-19.1-19.02l-5.63-13.14-5.69 13.14h11.32zM146.22 156.85c-2.33-1.9-4.61-3.55-7.45-4.27-9.7-2.44-18.2 4.54-17.7 14.53.25 4.93 1.97 9.08 6.29 11.73 4.88 3 9.92 2.36 14.91.2.3-.12.54-.74.55-1.14.04-3.44.02-6.88.02-10.31v-1.39h10.4v1.3c0 4.64.03 9.28-.04 13.92 0 .64-.3 1.42-.74 1.87-4.18 4.32-9.46 6.27-15.33 6.73-6.02.48-11.75-.47-16.76-4.08-7.52-5.4-10.57-12.85-9.77-21.97.86-9.8 7.78-18.17 17.31-20.53 8.53-2.11 16.32-.44 23.15 5.25.15.12.33.21.55.36l-5.4 7.8zM323.06 189.54h-9.91v-48.63h9.84v16.8c.19 0 .3.02.33-.02 5.2-5.53 15.74-5.93 22.24 1.88 5.73 6.86 6.23 21.98-5.22 28.67-5.56 3.24-11.95 2.33-16.47-2.23-.21-.22-.36-.5-.54-.76l-.28.15v4.14zm7.71-27.57c-1.38-.01-2.9.53-4.23 1.57-3.44 2.7-4.75 8.33-2.88 12.8 1.22 2.92 3.32 4.92 6.57 5.27 3.19.35 5.65-1.08 7.49-3.62 2.74-3.8 2.37-9.66-.77-13.23a7.74 7.74 0 0 0-6.18-2.8zM258.44 238.53h-25.7a6.22 6.22 0 0 0 2.24 4.06c3.79 3.33 10.17 3.2 14.11-.27l.88-.81 5.55 6.01a19.4 19.4 0 0 1-10 5.28c-4.86.9-9.57.45-13.93-2.02a16.12 16.12 0 0 1-8.43-12.4c-.71-5.32-.12-10.38 3.28-14.8 6.6-8.54 20.47-9.26 27.93-1.46 3 3.14 3.98 7.02 4.06 11.21.03 1.67 0 3.35 0 5.2zm-10.13-7.18c-.58-4.35-3.88-6.88-8.14-6.4-4.28.47-7.38 3.96-7 6.4h15.14zM221.72 175.44h-25.66a6.2 6.2 0 0 0 2.13 3.98c3.56 3.3 9.76 3.35 13.82.14.4-.32.8-.67 1.3-1.1l5.53 5.98a19.69 19.69 0 0 1-13.69 5.67c-6.56.08-12.12-2.1-15.95-7.6-7.54-10.83-1.5-25.97 11.4-28.54a18.7 18.7 0 0 1 13.42 2.2c5.07 2.95 7.5 7.47 7.69 13.24.06 1.95 0 3.9 0 6.03zm-25.35-7.2h15.23c-.48-3.98-3.38-6.5-7.3-6.44-4.1.07-7.68 2.94-7.93 6.44zM287.22 190.12c-9.1.02-16.52-5.72-18.33-14.2a18.2 18.2 0 0 1 18.02-22.28c8.16 0 14.88 4.12 17.62 11.1 5.01 12.74-3.8 25.53-17.3 25.38zm8.79-18.12c-.12-.95-.17-1.9-.36-2.84-.75-3.65-3.56-6.45-6.91-6.93-3.95-.58-7.24 1-9.04 4.4-1.25 2.35-1.44 4.87-1.05 7.46a8.67 8.67 0 0 0 11.47 7.1c3.54-1.19 5.8-4.77 5.89-9.19zM228.77 154.27h9.76v3.69c.38-.28.63-.44.85-.62 4.3-3.75 9.18-4.89 14.46-2.62 5.3 2.26 7.71 6.72 7.84 12.3.16 7.35.03 14.72.03 22.07 0 .12-.05.23-.1.43h-9.8v-1.27c0-6.32 0-12.63-.02-18.95 0-.88-.06-1.77-.22-2.62-.96-5.03-5.98-6.86-10.04-3.7-2.27 1.76-2.96 4.18-2.97 6.89v19.63h-9.79v-35.23zM291.74 220.95l-3.61 6.46c-1.55-.74-3.01-1.55-4.56-2.15a11.98 11.98 0 0 0-7.06-.62c-1.08.24-1.99.76-2.14 1.96-.16 1.2.52 2.03 1.56 2.43 2.56.99 5.19 1.83 7.75 2.83a46.4 46.4 0 0 1 4.88 2.24 6.95 6.95 0 0 1 3.55 4.89c1.52 6.78-2.68 12.8-9.91 13.9-6.99 1.07-13.29-.82-18.95-4.97-.13-.09-.22-.22-.37-.38l4.32-6.16c2.35 1.73 4.79 3.2 7.6 3.73 1.71.32 3.48.37 5.23.43.56.01 1.18-.24 1.7-.51 1.57-.85 1.88-2.65.48-3.74-1.2-.94-2.65-1.6-4.07-2.21-1.38-.6-2.89-.93-4.3-1.5-1.32-.53-2.6-1.2-3.88-1.84-6.64-3.25-6.16-12.24-.78-16.06 4.53-3.22 9.56-3.55 14.78-2.36a22.2 22.2 0 0 1 7.78 3.63zM153.7 108.38c-.02.46-.07.92-.07 1.38 0 4.92-.04 9.84.02 14.75.02 1.25-.39 1.62-1.58 1.54-1.23-.1-2.47-.04-3.71-.02-.62 0-.97-.16-.97-.88.03-9.15.03-18.3.04-27.46 0-.07.05-.15.14-.4 1.76 0 3.58-.05 5.4.04.36.02.75.52 1.03.87 4.18 5.46 8.34 10.93 12.5 16.4.26.33.54.66 1.06.93V97.36h6.3c.03.43.07.81.07 1.2 0 8.72-.02 17.43.03 26.15 0 1.08-.33 1.4-1.36 1.34a41.43 41.43 0 0 0-3.96 0c-.8.03-1.31-.27-1.8-.9-3.98-5.3-8-10.58-12.02-15.86-.26-.34-.55-.67-.82-1l-.3.08zM356.77 140.9h9.73v48.66h-9.72V140.9zM161.39 252.62v-48.57h9.77v48.57h-9.77zM296.02 126.01c-2.65 0-4.96.04-7.27-.04-.36-.01-.8-.46-1.06-.82-1.76-2.48-3.5-4.97-5.2-7.48-.42-.64-.9-.92-1.67-.87-1.07.06-2.15.01-3.38.01-.03.5-.08.91-.08 1.33 0 2.28-.03 4.56.01 6.84.02.77-.23 1.08-1.01 1.06-1.48-.04-2.96-.02-4.44-.01-.56 0-.9-.14-.9-.81l.05-27.59c0-.06.06-.13.1-.23.1-.03.2-.1.32-.1 4.55.06 9.1.07 13.66.21 1.3.05 2.6.37 3.85.76a6.96 6.96 0 0 1 5 5.45c.51 2.31.48 4.6-.17 6.87-.71 2.5-2.42 4.16-5 5.21l7.2 10.21zm-18.58-14.59c1.94 0 3.8.05 5.67 0 3.65-.11 5.2-1.96 4.72-5.59-.18-1.4-.84-2.54-2.28-2.71-2.67-.32-5.36-.44-8.11-.65v8.95zM181.66 163.02c-1.05 0-2.14-.12-3.19.03-3.61.5-5.9 2.81-6.82 6.9a20.5 20.5 0 0 0-.47 4.16c-.06 4.67-.02 9.35-.02 14.02v1.39h-9.8v-35.25h9.8v4.45c3.06-2.9 6.29-4.88 10.5-5.1v9.4zM407.63 97.37v5.47H393.4v6.17h12.77v5.35h-12.78v6.17h14.77c0 1.72.05 3.3-.05 4.88-.02.23-.74.59-1.15.59-4.35.04-8.71.03-13.07.03-1.96 0-3.92-.02-5.88 0-.73.01-1.07-.18-1.07-1 .03-9 .02-18 .02-27 0-.2.04-.38.07-.66h20.61zM238.93 97.28h2.23c5.68 0 11.36.02 17.03-.02 1 0 1.36.28 1.3 1.28a22.2 22.2 0 0 0 0 3.12c.07 1.03-.36 1.26-1.33 1.25-3.95-.05-7.91 0-11.87-.04-.98 0-1.36.27-1.3 1.29.06 1.23.05 2.47 0 3.71-.04.88.28 1.18 1.17 1.17 3.52-.04 7.04.03 10.55-.04 1.1-.02 1.4.36 1.33 1.37a22.8 22.8 0 0 0 0 2.88c.05.87-.24 1.18-1.16 1.17-3.55-.05-7.11.01-10.67-.04-.95-.01-1.28.28-1.23 1.22.07 1.2.08 2.4 0 3.6-.06 1.03.27 1.39 1.34 1.37 4.04-.06 8.08-.02 12.11-.02h1.44c0 1.69.04 3.23-.04 4.78-.01.24-.54.64-.84.66-1.28.08-2.56.04-3.84.04h-15.1c-.83.01-1.23-.15-1.23-1.11.04-8.91.02-17.83.03-26.74 0-.24.04-.48.08-.9zM110.8 97.33h6.18c.02.46.06.88.06 1.3 0 5.04-.08 10.08.05 15.12.04 1.45.5 3 1.15 4.3 1.03 2.04 2.94 2.85 5.2 2.73 2.15-.12 3.84-1.14 4.63-3.1.59-1.47.94-3.14.98-4.74.12-4.75.07-9.51.02-14.27 0-1.08.27-1.49 1.41-1.42 1.54.1 3.1.03 4.75.03.04.49.09.87.09 1.26v15.35c-.02 3.34-.8 6.4-3.2 8.9-2.71 2.83-6.15 3.81-9.92 3.57-4.77-.3-8.53-2.39-10.41-7-.6-1.48-.99-3.16-1.02-4.76-.13-5.55-.06-11.11-.05-16.67 0-.15.03-.3.08-.6zM326.45 100.41l-3.04 4.4c-1.4-.7-2.67-1.5-4.05-1.93a16.69 16.69 0 0 0-4.33-.67c-1.6-.06-2.81 1-3.06 2.35-.23 1.25.47 2.39 2.07 2.97 1.6.59 3.3.96 4.92 1.5 1.28.43 2.57.88 3.78 1.46 3.02 1.47 4.35 3.99 4.3 7.28-.03 3.25-1.46 5.73-4.33 7.2-4.41 2.27-8.92 1.85-13.29-.1-1.82-.83-3.45-2.1-5.32-3.27l3.85-4.75c.65.5 1.24.96 1.85 1.39 2.33 1.64 4.78 2.9 7.76 2.56 1.54-.18 2.71-1.08 2.9-2.26.25-1.54-.3-2.58-2.03-3.22-1.71-.64-3.52-1-5.25-1.63a37.64 37.64 0 0 1-4.6-1.98 5.56 5.56 0 0 1-2.75-3.62c-1.58-5.62 1.32-10.29 7.25-11.22 4.48-.7 8.75.18 12.53 2.85.26.17.49.4.84.7z"/>
<path fill="#545872" fill-rule="evenodd" d="M72.64 204.76a10.95 10.95 0 0 1-11-11.07 11.04 11.04 0 0 1 11.1-11 11.1 11.1 0 0 1 11.02 11.1 11 11 0 0 1-11.12 10.97zM201.51 97.28c2.16 0 4.12-.05 6.07.05.39.02.92.54 1.1.95 2.13 5.25 4.22 10.52 6.32 15.78.18.44.38.87.69 1.58.3-.6.51-.98.67-1.39 2.13-5.29 4.28-10.58 6.35-15.89.34-.86.78-1.13 1.67-1.1 1.78.07 3.57.02 5.58.02-.59 1.5-1.1 2.83-1.63 4.14-3.1 7.74-6.23 15.47-9.3 23.22-.4 1.03-.92 1.53-2.08 1.4-1.27-.12-2.84.35-3.74-.25-.9-.59-1.17-2.17-1.64-3.34-3.21-7.95-6.4-15.91-9.6-23.87-.14-.36-.26-.74-.46-1.3zM58.5 186.28c-1.1-.41-2.3-.87-3.49-1.3-2.96-1.04-5.92-2.14-8.91-3.11-2.79-.9-4.98-2.47-6.37-5.09-.32-.6-.7-1.16-1.07-1.73-1.62-2.52-.96-6.2 1.58-7.85 1.32-.86 2.83-1.45 4.3-2.06 1.58-.64 3.21-1.16 4.99-1.8l.48.9c3 5.98 5.94 12 9.06 17.93.87 1.65.83 2.83-.57 4.1zM35.99 203.7c-1.22-1.85-2.37-3.57-3.5-5.3-2.85-4.36-1.9-8.3 2.76-10.63 1.65-.82 3.52-1.23 5.32-1.7a3.75 3.75 0 0 1 2 .16c4.69 1.54 9.37 3.13 14.05 4.7.1.04.2.12.3.18.02.08.05.15.06.23.28 2.13-.9 3.04-2.73 3.86-6.15 2.73-12.22 5.67-18.26 8.5zM36.77 205.3l6.32-.97c4.5-.68 9.03-1.2 13.5-2.09 2.1-.42 3.3.16 4.12 2.14l-1.48 1.88c-2.09 2.72-4.22 5.42-6.25 8.2a10.38 10.38 0 0 1-6.74 4.39c-1.4.24-2.86.76-4.21.58-3.16-.42-4.9-2.51-5.22-6.22-.22-2.57-.04-5.17-.04-7.9zM50.98 162.34c1.38-1.72 2.68-3.38 4-5.02 3.25-4 7.18-4.23 10.89-.62.77.75 1.46 1.59 2.09 2.45a8.23 8.23 0 0 1 1.68 5.35c-.17 4.19-.14 8.38-.14 12.57 0 .8-.25 1.1-1.02 1.42-1.38.54-2.22.29-3.23-.83-4.52-4.95-9.15-9.8-13.73-14.7-.22-.22-.4-.47-.54-.62zM65.7 208.08c1.08.36 2.08.63 3.02 1.05.33.15.65.64.7 1.02.81 5.13 1.57 10.26 2.34 15.4l.76 5.1c-2.86.7-5.59 1.48-8.36 2.02-3.29.64-6.46-1.2-7.13-4.16-.34-1.5-.27-3.1-.34-4.65a8.14 8.14 0 0 1 1.43-5.1c2.48-3.57 5.04-7.1 7.59-10.68zM376.91 97.4v5.28h-4.65c-3.6 0-3.6 0-3.6 3.56v17.98c0 1.8 0 1.8-1.85 1.8-1.08 0-2.16-.05-3.24.02-1.05.08-1.14-.48-1.14-1.31.02-6.76.01-13.51.01-20.27 0-1.78 0-1.78-1.75-1.78-1.8 0-3.6-.02-5.4.01-.75.02-1.11-.2-1.08-1 .04-1.16.02-2.32 0-3.48 0-.62.17-.94.89-.94 7.11.02 14.23.02 21.34.02.12 0 .23.05.47.1zM80.66 207.5c1.06 1.48 2.06 2.87 3.04 4.28.16.24.25.6.25.9v19.67c0 .11-.07.23-.12.43-3.38.23-6.24-1.85-9.62-2l1.51-10.81c.45-3.17.92-6.33 1.31-9.5.13-1.03.38-1.78 1.56-2.03.68-.14 1.3-.58 2.07-.94zM83.96 154.2v8.9c0 2.72.03 5.44-.03 8.15a2.63 2.63 0 0 1-.6 1.56c-1.54 1.73-3.19 3.36-4.72 5.1-.57.62-1.08.8-1.87.51-.62-.23-1.3-.3-2.14-.49 0-2.4.02-4.82 0-7.24-.02-2.48-.08-4.95-.12-7.43 0-.16-.02-.32 0-.47.39-3.21 4.7-7.86 7.89-8.47.45-.08.93-.08 1.59-.13zM186.46 97.33h6.12c.02.42.07.8.07 1.2 0 8.7-.02 17.43.02 26.15.01 1.04-.25 1.43-1.33 1.37-1.35-.08-2.71-.03-4.07-.02-.61 0-.96-.14-.96-.87.03-9.16.02-18.32.03-27.48 0-.07.05-.14.12-.35zM344.12 97.28v1.4c0 8.62-.02 17.25.02 25.87 0 1.13-.27 1.6-1.46 1.5-.95-.1-1.91-.02-2.87-.02-1.92 0-1.92 0-1.92-1.87v-22.52c0-1.12.04-2.24 0-3.36-.03-.78.27-1.04 1.05-1.01 1.67.05 3.34.01 5.18.01zM405.25 89.6c-1.81 1.47-3.44 2.8-5.09 4.12-.2.17-.5.33-.74.34-1.7.03-3.41.01-5.38.01.34-.53.54-.9.78-1.22 1.2-1.7 2.44-3.36 3.6-5.07.42-.6.77-.76 1.47-.44 1.7.77 3.43 1.46 5.36 2.26zM51.94 222.03v5.76l-5.69 1.56c.42-1.86.82-3.73 1.27-5.6.03-.16.33-.29.53-.36l3.89-1.36zM28.98 179.95l6.19-1.33 2.03 3.08-4.88 2.07-3.34-3.82zM72.08 156.49l-2.56-3.03 2.69-4.33c.78 1.48 1.53 2.9 2.3 4.4l-2.43 2.96z"/>
</svg>
